<svg xmlns="http://www.w3.org/2000/svg" viewBox="0 0 64 64">
  <defs>
    <filter id="glow" x="-50%" y="-50%" width="200%" height="200%">
      <feGaussianBlur stdDeviation="2" result="blur"/>
      <feMerge>
        <feMergeNode in="blur"/>
        <feMergeNode in="SourceGraphic"/>
      </feMerge>
    </filter>
  </defs>
  <path d="M50 14l-2-2-4 4 2 2c-2 3-5 6-8 8l-4-4-4 4 4 4-12 12c-2 2-2 4-1 6-2 2-3 5-1 7 2 2 5 1 7-1 2 1 4 1 6-1l12-12 4 4 4-4-4-4c2-3 5-6 8-8l2 2 4-4-2-2 2-2-4-4-2 2z"
        fill="#fff" filter="url(#glow)"/>
</svg>